<?xml version="1.0" encoding="utf-8"?>
<!-- Generator: Adobe Illustrator 15.1.0, SVG Export Plug-In . SVG Version: 6.00 Build 0)  -->
<!DOCTYPE svg PUBLIC "-//W3C//DTD SVG 1.1//EN" "http://www.w3.org/Graphics/SVG/1.1/DTD/svg11.dtd">
<svg version="1.1" id="Layer_1" xmlns="http://www.w3.org/2000/svg" xmlns:xlink="http://www.w3.org/1999/xlink" x="0px" y="0px"
	 width="176px" height="208px" viewBox="0 0 176 208" enable-background="new 0 0 176 208" xml:space="preserve">
<rect x="-0.779" width="64" height="64"/>
<polygon fill="#FFFFFF" points="20.221,48 46.221,32 20.221,16 "/>
<g>
	<rect x="-0.779" y="64" width="64" height="64"/>
	<rect x="18.221" y="79.982" fill="#FFFFFF" width="9" height="32"/>
	<rect x="35.221" y="79.982" fill="#FFFFFF" width="9" height="32"/>
</g>
<rect x="63.221" width="63.999" height="64"/>
<g>
	<rect x="81.221" y="16" fill="#FFFFFF" width="3" height="32"/>
	<g>
		<polygon fill="#FFFFFF" points="84.221,32 109.22,16 109.22,24.16 95.948,32 109.22,39.841 109.22,48 		"/>
	</g>
</g>
<rect x="63.221" y="63.982" width="64" height="64"/>
<g>
	<rect x="106.221" y="79.982" fill="#FFFFFF" width="3" height="32"/>
	<g>
		<polygon fill="#FFFFFF" points="106.221,95.982 81.222,111.982 81.222,103.822 94.493,95.982 81.222,88.142 81.222,79.982 		"/>
	</g>
</g>
<g>
	<rect x="-0.779" y="128" width="64" height="64"/>
	<g>
		<g>
			<path fill="#F4F5F5" d="M36.625,148.783l-1.422,1.42c2.48,2.527,4.018,5.984,4.018,9.797s-1.537,7.27-4.018,9.797l1.42,1.42
				c2.842-2.887,4.598-6.844,4.598-11.217C41.221,155.628,39.465,151.67,36.625,148.783z"/>
			<path fill="#F4F5F5" d="M40.869,144.537l-1.424,1.426c3.566,3.613,5.775,8.57,5.775,14.037s-2.209,10.424-5.777,14.037
				l1.426,1.426c3.926-3.973,6.352-9.432,6.352-15.463S44.795,148.51,40.869,144.537z"/>
		</g>
		<polygon fill="#FFFFFF" points="31.221,148 25.221,154 15.221,154 15.221,166 25.221,166 31.221,172 		"/>
	</g>
</g>
<rect x="62.721" y="128" width="64" height="64"/>
<g>
	<path fill="#FFFFFF" d="M102.722,162.5c0,5.238-4.262,9.5-9.5,9.5s-9.5-4.262-9.5-9.5s4.262-9.5,9.5-9.5c0.168,0,0.334-0.009,0.5,0
		v-4c-0.168-0.006-0.332,0-0.5,0c-7.457,0-13.5,6.044-13.5,13.5s6.043,13.5,13.5,13.5c7.455,0,13.5-6.044,13.5-13.5
		c0-0.169,0.006-0.332,0-0.5h-4C102.729,162.167,102.722,162.331,102.722,162.5z"/>
	<polygon fill="#FFFFFF" points="95.722,144 95.722,158 107.722,151 	"/>
</g>
</svg>
